<svg xmlns="http://www.w3.org/2000/svg" width="256" height="256" viewBox="0 0 100 100"><rect width="100" height="100" rx="20" fill="#f8f4e3"></rect><path fill="#191516" d="M35.04 88.50L17.22 91.14Q20.52 75.74 23.38 61.22L23.38 61.22Q24.48 54.95 25.69 48.24Q26.90 41.53 27.95 34.93Q28.99 28.33 29.81 22.11Q30.64 15.90 31.08 10.84L31.08 10.84Q33.61 11.06 36.80 11.22Q39.99 11.39 42.74 11.61L42.74 11.61Q46.04 11.83 49.34 11.83L49.34 11.83Q49.23 12.27 49.01 13.48Q48.79 14.69 48.46 16.39Q48.13 18.10 47.75 20.19Q47.36 22.28 46.92 24.37L46.92 24.37Q46.04 29.21 44.94 35.26L44.94 35.26L45.60 35.15Q46.70 33.39 48.73 30.26Q50.77 27.12 52.97 23.60Q55.17 20.08 57.26 16.83Q59.35 13.59 60.78 11.28L60.78 11.28Q66.28 10.84 71.78 10.29Q77.28 9.74 82.78 8.86L82.78 8.86Q77.61 15.79 72.77 22.50L72.77 22.50Q70.68 25.36 68.53 28.44Q66.39 31.52 64.30 34.49Q62.21 37.46 60.39 40.21Q58.58 42.96 57.15 45.27L57.15 45.27Q59.57 56.38 62.87 66.72Q66.17 77.06 69.58 87.84L69.58 87.84Q67.05 87.73 64.41 87.67Q61.77 87.62 59.24 87.62L59.24 87.62Q56.05 87.62 53.08 87.67Q50.11 87.73 46.92 87.84L46.92 87.84Q45.93 80.69 44.77 72.83Q43.62 64.96 42.63 57.81L42.63 57.81L40.65 60.12Q39.88 63.42 38.95 68.26Q38.01 73.10 37.13 77.61L37.13 77.61Q36.14 82.89 35.04 88.50L35.04 88.50Z"></path></svg>