<svg xmlns="http://www.w3.org/2000/svg" width="256" height="256" viewBox="0 0 100 100"><rect width="100" height="100" rx="20" fill="#fcbf49"></rect><path d="M9.69 66.76L10.66 66.76Q12.61 66.76 14 65.38Q15.39 63.99 15.46 62.04L15.46 62.04L15.46 20.41Q15.39 18.46 14 17.11Q12.61 15.76 10.66 15.76L10.66 15.76L9.69 15.76L9.69 15.01L36.61 15.01L36.61 15.76L35.64 15.76Q33.69 15.76 32.30 17.11Q30.91 18.46 30.84 20.41L30.84 20.41L30.84 62.04Q30.84 63.99 32.26 65.38Q33.69 66.76 35.64 66.76L35.64 66.76L36.61 66.76L36.61 67.51L9.69 67.51L9.69 66.76ZM90.16 79.96L90.31 80.79Q82.89 84.99 75.99 84.99L75.99 84.99Q66.24 84.99 56.86 75.24L56.86 75.24Q53.41 71.64 49.74 66.54L49.74 66.54L33.24 43.66L51.16 19.21Q51.69 18.46 51.69 17.86Q51.69 17.26 51.46 16.81L51.46 16.81Q50.94 15.69 49.36 15.69L49.36 15.69L48.61 15.69L48.61 15.01L66.69 15.01L66.69 15.69L66.39 15.69Q61.36 15.69 58.14 19.36L58.14 19.36L45.31 34.89L62.49 59.04Q70.66 70.51 76.55 74.94Q82.44 79.36 90.16 79.96L90.16 79.96Z" fill="#000000"></path></svg>